<?xml version="1.0" encoding="iso-8859-1"?>
<!-- Generator: Adobe Illustrator 19.0.0, SVG Export Plug-In . SVG Version: 6.00 Build 0)  -->
<svg version="1.1" id="Capa_1" xmlns="http://www.w3.org/2000/svg" xmlns:xlink="http://www.w3.org/1999/xlink" x="0px" y="0px"
	 viewBox="0 0 454.008 454.008" style="enable-background:new 0 0 454.008 454.008;" xml:space="preserve">
<g>
	<path style="fill:#1185E0;" d="M225.437,406.465H34.743c-8.882,0-15.673-6.792-15.673-15.673V354.22
		c0-79.935,65.306-145.241,145.241-145.241h40.229c22.465,0,44.408,5.224,65.306,15.673l-14.106,28.212
		c-16.718-8.359-33.959-12.539-51.722-12.539H164.31c-62.694,0-113.894,51.2-113.894,113.894v20.898h175.02V406.465z"/>
	<path style="fill:#1185E0;" d="M184.163,192.261c-52.767,0-96.131-43.363-96.131-96.131S131.396,0,184.163,0
		s96.131,43.363,96.131,96.131S236.931,192.261,184.163,192.261z M184.163,31.347c-35.527,0-64.784,29.257-64.784,64.784
		s29.257,64.784,64.784,64.784s64.784-29.257,64.784-64.784S219.69,31.347,184.163,31.347z"/>
</g>
<g>
	<path style="fill:#4DCFE0;" d="M313.731,211.592c-66.873,0-121.208,54.335-121.208,121.208s54.335,121.208,121.208,121.208
		S434.939,399.673,434.939,332.8S380.604,211.592,313.731,211.592z M313.731,422.661c-49.633,0-89.861-40.229-89.861-89.861
		s40.229-89.861,89.861-89.861s89.861,40.229,89.861,89.861S363.363,422.661,313.731,422.661z"/>
	<path style="fill:#4DCFE0;" d="M357.094,317.126h-27.69v-27.69c0-8.882-6.792-15.673-15.673-15.673
		c-8.882,0-15.673,6.792-15.673,15.673v27.69h-27.69c-8.882,0-15.673,6.792-15.673,15.673c0,8.882,6.792,15.673,15.673,15.673h27.69
		v27.69c0,8.882,6.792,15.673,15.673,15.673c8.882,0,15.673-6.792,15.673-15.673v-27.69h27.69c8.882,0,15.673-6.792,15.673-15.673
		C372.767,323.918,365.975,317.126,357.094,317.126z"/>
</g>
<g>
</g>
<g>
</g>
<g>
</g>
<g>
</g>
<g>
</g>
<g>
</g>
<g>
</g>
<g>
</g>
<g>
</g>
<g>
</g>
<g>
</g>
<g>
</g>
<g>
</g>
<g>
</g>
<g>
</g>
</svg>
